<!--?xml version="1.0" encoding="utf-8"?-->
<!-- Generator: Adobe Illustrator 18.1.1, SVG Export Plug-In . SVG Version: 6.00 Build 0)  -->

<svg version="1.1" id="_x32_" xmlns="http://www.w3.org/2000/svg" xmlns:xlink="http://www.w3.org/1999/xlink" x="0px" y="0px" viewBox="0 0 512 512" xml:space="preserve">

<g>
	<path class="st0" d="M468.27,112.853l-34.633,23.398c23.092,34.216,36.561,75.304,36.568,119.749
		c-0.008,59.209-23.944,112.631-62.738,151.467c-38.827,38.786-92.248,62.722-151.467,62.73
		c-59.218-0.008-112.639-23.944-151.459-62.73C65.739,368.631,41.803,315.21,41.803,256c0-59.218,23.936-112.63,62.738-151.468
		c34.2-34.173,79.728-56.788,130.558-61.698v74.399h41.802V0H256c-70.632-0.016-134.76,28.685-181.02,74.98
		C28.684,121.241-0.008,185.369,0.001,256c-0.009,70.632,28.684,134.751,74.979,181.021C121.24,483.308,185.368,512.018,256,512
		c70.632,0.018,134.76-28.692,181.021-74.979c46.295-46.27,74.996-110.389,74.979-181.021
		C512.017,203.048,495.872,153.693,468.27,112.853z" style="fill: rgb(75, 75, 75);"></path>
	<path class="st0" d="M155.141,120.243c-4.867,0-9.564,1.765-13.229,4.962c-7.519,6.572-9.087,17.816-3.376,26.528l91.286,122.501
		c0.938,1.534,2.011,3.026,3.256,4.468c6.112,7.015,14.96,11.03,24.269,11.03c7.774,0,15.292-2.821,21.157-7.935
		c13.374-11.662,14.764-32.043,3.078-45.452c-1.236-1.398-2.583-2.685-3.478-3.367L168.337,125.153
		C164.671,121.99,159.983,120.243,155.141,120.243z" style="fill: rgb(75, 75, 75);"></path>
</g>
</svg>
