<?xml version="1.0" standalone="no"?>
<!DOCTYPE svg PUBLIC "-//W3C//DTD SVG 20010904//EN"
 "http://www.w3.org/TR/2001/REC-SVG-20010904/DTD/svg10.dtd">
<svg version="1.0" xmlns="http://www.w3.org/2000/svg"
 width="1042.000000pt" height="1042.000000pt" viewBox="0 0 1042.000000 1042.000000"
 preserveAspectRatio="xMidYMid meet">
<metadata>
Created by potrace 1.14, written by Peter Selinger 2001-2017
</metadata>
<g transform="translate(0.000000,1042.000000) scale(0.100000,-0.100000)"
fill="#000000" stroke="none">
<path d="M5057 9484 c-1 -1 -54 -5 -117 -9 -63 -3 -128 -8 -145 -10 -16 -2
-57 -7 -90 -10 -78 -8 -119 -14 -180 -25 -27 -5 -66 -12 -85 -15 -19 -3 -48
-8 -65 -11 -133 -22 -579 -150 -690 -199 -16 -7 -77 -32 -135 -56 -284 -116
-623 -309 -890 -507 -311 -231 -651 -571 -882 -882 -250 -337 -459 -730 -599
-1125 -42 -117 -104 -324 -124 -415 -24 -102 -43 -195 -48 -225 -35 -212 -35
-210 -42 -285 -4 -36 -9 -76 -10 -90 -23 -188 -23 -681 0 -822 2 -13 6 -54 10
-93 4 -38 8 -72 10 -75 1 -3 6 -32 10 -65 9 -85 51 -293 81 -405 14 -52 27
-104 30 -115 8 -42 97 -303 141 -414 56 -142 162 -365 239 -503 57 -103 191
-319 203 -328 4 -3 15 -18 25 -35 126 -200 470 -583 701 -781 374 -321 756
-555 1207 -740 105 -43 386 -140 430 -148 13 -2 49 -11 80 -21 31 -9 69 -18
85 -21 15 -3 63 -13 108 -24 44 -10 98 -21 120 -24 22 -4 47 -8 55 -11 8 -2
35 -6 60 -9 25 -3 56 -8 70 -11 13 -2 54 -7 90 -11 36 -3 75 -7 88 -9 142 -23
656 -23 826 0 17 2 56 7 87 10 31 3 65 7 75 9 11 2 42 7 69 10 41 5 86 13 125
21 3 1 25 5 50 9 211 36 648 168 817 246 24 11 45 20 47 20 6 0 150 67 216
100 30 15 71 36 90 45 69 35 247 139 330 194 561 366 1012 835 1358 1411 82
136 237 453 296 603 73 186 164 475 190 607 3 14 16 79 30 145 14 66 27 143
30 170 4 28 8 60 10 72 3 12 8 53 11 90 4 37 9 77 11 87 21 115 21 682 -1 816
-2 14 -6 56 -10 93 -3 37 -8 78 -11 90 -2 12 -7 42 -10 67 -21 169 -101 494
-175 714 -150 444 -420 942 -690 1271 -141 171 -197 234 -329 366 -145 145
-275 265 -324 298 -12 8 -23 18 -26 21 -17 22 -315 235 -416 297 -197 121
-447 249 -659 336 -246 101 -603 205 -830 241 -16 3 -39 7 -50 9 -11 3 -40 8
-65 11 -25 3 -54 8 -65 10 -11 2 -49 7 -85 11 -36 3 -78 8 -95 10 -91 11 -559
27 -568 19z"/>
</g>
</svg>
